<svg xmlns="http://www.w3.org/2000/svg" viewBox="0 0 248.2 162"><defs><style>.cls-1{fill:#3c4250;}.cls-2{fill:#262d3c;}.cls-3{fill:#fff;}</style></defs><title>arrows</title><g id="Layer_2" data-name="Layer 2"><g id="Layer_2-2" data-name="Layer 2"><path class="cls-1" d="M126.22,89.49H89.48V5.18A5.2,5.2,0,0,1,94.67,0h31.42Q126.17,44.75,126.22,89.49Z"/><path class="cls-2" d="M162,5.18V89.49H126.22q-.06-44.74-.13-89.49h30.72A5.2,5.2,0,0,1,162,5.18Z"/><path class="cls-1" d="M94.67,162H6.41A6.43,6.43,0,0,1,0,155.59V95.9a6.42,6.42,0,0,1,6.41-6.41H89.48v67.33A5.2,5.2,0,0,0,94.67,162Z"/><path class="cls-1" d="M126.33,162H94.67a5.2,5.2,0,0,1-5.19-5.18V89.49h36.74Q126.28,125.75,126.33,162Z"/><path class="cls-2" d="M162,89.49v67.33a5.2,5.2,0,0,1-5.19,5.18H126.33q-.06-36.25-.11-72.51Z"/><path class="cls-2" d="M248.2,95.9v59.69a6.44,6.44,0,0,1-6.42,6.41h-85a5.2,5.2,0,0,0,5.19-5.18V89.49h79.78A6.43,6.43,0,0,1,248.2,95.9Z"/><polygon class="cls-3" points="15.14 125.74 42.1 141.31 42.1 110.18 15.14 125.74"/><polygon class="cls-3" points="235.01 125.74 208.05 141.31 208.05 110.18 235.01 125.74"/><polygon class="cls-3" points="125.74 16.75 110.17 43.71 141.31 43.71 125.74 16.75"/></g></g></svg>